HIERARCHY
ROOT Hips
{
	OFFSET 0.000000 0.000000 0.000000
	CHANNELS 6 Xposition Yposition Zposition Zrotation Yrotation Xrotation 
	JOINT LowerBack
	{
		OFFSET 0.000000 0.000000 0.000000
		CHANNELS 3 Zrotation Yrotation Xrotation
		JOINT Spine
		{
			OFFSET 0.028270 2.035590 -0.193380
			CHANNELS 3 Zrotation Yrotation Xrotation
			JOINT Spine1
			{
				OFFSET 0.056720 2.048850 -0.042750
				CHANNELS 3 Zrotation Yrotation Xrotation
				JOINT Neck
				{
					OFFSET 0.000000 0.000000 0.000000
					CHANNELS 3 Zrotation Yrotation Xrotation
					JOINT Neck1
					{
						OFFSET -0.054170 1.746240 0.172020
						CHANNELS 3 Zrotation Yrotation Xrotation
						JOINT Head
						{
							OFFSET 0.104070 1.761360 -0.123970
							CHANNELS 3 Zrotation Yrotation Xrotation
							End Site
							{
								OFFSET 0.000000 0.000000 0.000000
							}
						}
					}
				}
				JOINT LeftShoulder
				{
					OFFSET 0.000000 0.000000 0.000000
					CHANNELS 3 Zrotation Yrotation Xrotation
					JOINT LeftArm
					{
						OFFSET 3.362410 1.200890 -0.311210
						CHANNELS 3 Zrotation Yrotation Xrotation
						JOINT LeftForeArm
						{
							OFFSET 4.983000 -0.000000 -0.000000
							CHANNELS 3 Zrotation Yrotation Xrotation
							JOINT LeftHand
							{
								OFFSET 3.483560 -0.000000 -0.000000
								CHANNELS 3 Zrotation Yrotation Xrotation
								JOINT LeftFingerBase
								{
									OFFSET 0.000000 0.000000 0.000000
									CHANNELS 3 Zrotation Yrotation Xrotation
									JOINT LeftHandIndex1
									{
										OFFSET 0.715260 -0.000000 -0.000000
										CHANNELS 3 Zrotation Yrotation Xrotation
										End Site
										{
											OFFSET 0.000000 0.000000 0.000000
										}
									}
								}
								JOINT LThumb
								{
									OFFSET 0.000000 0.000000 0.000000
									CHANNELS 3 Zrotation Yrotation Xrotation
									End Site
									{
										OFFSET 0.000000 0.000000 0.000000
									}
								}
							}
						}
					}
				}
				JOINT RightShoulder
				{
					OFFSET 0.000000 0.000000 0.000000
					CHANNELS 3 Zrotation Yrotation Xrotation
					JOINT RightArm
					{
						OFFSET -3.136600 1.374050 -0.404650
						CHANNELS 3 Zrotation Yrotation Xrotation
						JOINT RightForeArm
						{
							OFFSET -5.241900 -0.000000 -0.000000
							CHANNELS 3 Zrotation Yrotation Xrotation
							JOINT RightHand
							{
								OFFSET -3.444170 -0.000000 -0.000000
								CHANNELS 3 Zrotation Yrotation Xrotation
								JOINT RightFingerBase
								{
									OFFSET 0.000000 0.000000 0.000000
									CHANNELS 3 Zrotation Yrotation Xrotation
									JOINT RightHandIndex1
									{
										OFFSET -0.622530 -0.000000 -0.000000
										CHANNELS 3 Zrotation Yrotation Xrotation
										End Site
										{
											OFFSET 0.000000 0.000000 0.000000
										}
									}
								}
								JOINT RThumb
								{
									OFFSET 0.000000 0.000000 0.000000
									CHANNELS 3 Zrotation Yrotation Xrotation
									End Site
									{
										OFFSET 0.000000 0.000000 0.000000
									}
								}
							}
						}
					}
				}
			}
		}
	}
}
}
MOTION
Frames: 12
Frame Time: 0.008333
5.462236 17.920820 1.753467 86.431839 -89.341798 -46.822595 -0.207056 -1.027994 -0.708573 0.059781 -0.969926 -3.688419 -1.548434 -1.018468 -3.317448 0.676421 -3.651092 -6.971364 0.222589 0.030897 -0.184532 0.000000 0.000000 0.000000 14.360684 -6.135078 1.050167 -60.492449 -44.506356 5.593536 0.646458 -61.560916 -0.219348 19.663175 -8.488600 -1.629207 -0.250011 0.774221 -0.000000 0.000000 0.000000 0.000000 0.000000 0.000000 0.000000 -8.299257 3.454067 2.826031 59.983803 49.849966 17.896675 0.170469 46.196991 -0.094475 -14.550418 14.659761 -1.989142 0.206812 -0.609787 -0.000000 0.000000 0.000000 0.000000 0.000000 0.000000 0.000000 
5.278164 18.099520 1.738915 98.090479 -89.419512 -58.396282 -0.137066 -1.039026 -0.600652 0.116853 -0.978286 -3.684340 -1.380033 -1.021857 -3.394222 0.436951 -3.496955 -6.875249 0.353065 0.038836 -0.150966 0.000000 0.000000 0.000000 14.650245 -6.076313 0.879865 -58.926964 -45.845190 4.161881 0.698210 -62.951282 -0.219909 19.111425 -8.361038 -1.562585 -0.234578 0.788051 -0.000000 0.000000 0.000000 0.000000 0.000000 0.000000 0.000000 -9.058962 3.581525 2.725840 58.190065 51.895803 16.916166 0.030613 46.666694 -0.097428 -14.219911 14.293499 -1.897772 0.199840 -0.622162 -0.000000 0.000000 0.000000 0.000000 0.000000 0.000000 0.000000 
5.101151 18.265514 1.723553 110.599368 -89.385169 -70.676479 -0.133676 -1.069048 -0.500127 0.156373 -1.002660 -3.684191 -1.220827 -1.041625 -3.476192 0.226459 -3.398137 -6.792512 0.479373 0.046859 -0.123121 0.000000 0.000000 0.000000 14.944481 -5.966942 0.707388 -57.199493 -47.179724 2.404627 0.737872 -64.348117 -0.220167 18.567753 -8.245137 -1.499671 -0.218469 0.801454 -0.000000 0.000000 0.000000 0.000000 0.000000 0.000000 0.000000 -9.767435 3.618909 2.603689 56.244994 53.944160 15.561023 -0.127650 47.154753 -0.101841 -14.055968 13.966926 -1.835609 0.194089 -0.636219 -0.000000 0.000000 0.000000 0.000000 0.000000 0.000000 0.000000 
4.940561 18.425828 1.694107 149.110588 -88.586912 -109.113280 -0.813844 -0.974939 -0.090189 0.020539 -0.865010 -3.615922 -1.071567 -0.896424 -3.589684 0.154656 -3.353292 -6.726627 0.599551 0.055281 -0.107334 0.000000 0.000000 0.000000 15.399881 -5.773766 0.519917 -55.125373 -48.497139 0.177135 0.772512 -65.692276 -0.220472 18.099654 -8.165263 -1.449746 -0.203901 0.813456 -0.000000 0.000000 0.000000 0.000000 0.000000 0.000000 0.000000 -10.253516 3.668968 2.472438 54.113156 56.070897 13.707023 -0.306669 47.608583 -0.108563 -14.065348 13.681138 -1.802237 0.188795 -0.654024 -0.000000 0.000000 0.000000 0.000000 0.000000 0.000000 0.000000 
4.776960 18.566666 1.677520 152.103941 -88.438879 -111.656329 -0.844292 -1.000988 0.017700 0.045434 -0.885429 -3.620852 -0.940564 -0.912466 -3.688843 -0.002590 -3.360280 -6.634601 0.712088 0.062272 -0.079462 0.000000 0.000000 0.000000 15.737933 -5.605948 0.327964 -53.119474 -49.738965 -2.238856 0.784701 -67.046508 -0.222018 17.749836 -8.154592 -1.421154 -0.190407 0.826883 -0.000000 0.000000 0.000000 0.000000 0.000000 0.000000 0.000000 -10.843281 3.560059 2.298487 51.775926 58.036449 11.533690 -0.483350 48.131764 -0.115669 -14.237304 13.418120 -1.792394 0.187375 -0.669969 -0.000000 0.000000 0.000000 0.000000 0.000000 0.000000 0.000000 
4.618674 18.694987 1.660912 152.807117 -88.332188 -111.821212 -0.864313 -1.040822 0.125594 0.070284 -0.920485 -3.629262 -0.824741 -0.943317 -3.794751 -0.140190 -3.408253 -6.518507 0.814912 0.068065 -0.045327 0.000000 0.000000 0.000000 16.108635 -5.449630 0.120914 -51.014840 -50.897129 -4.950544 0.783132 -68.357968 -0.225080 17.567205 -8.217820 -1.417968 -0.180242 0.840695 -0.000000 0.000000 0.000000 0.000000 0.000000 0.000000 0.000000 -11.370028 3.391982 2.097730 49.200026 59.900373 8.929010 -0.655180 48.675080 -0.123555 -14.534013 13.174953 -1.799966 0.188408 -0.685503 -0.000000 0.000000 0.000000 0.000000 0.000000 0.000000 0.000000 
4.464787 18.811368 1.644700 151.799462 -88.265203 -110.207523 -0.870417 -1.090958 0.237686 0.095951 -0.966853 -3.638935 -0.722858 -0.985656 -3.902826 -0.264007 -3.488613 -6.369465 0.907196 0.072383 -0.002272 0.000000 0.000000 0.000000 16.511408 -5.316596 -0.102841 -48.838696 -51.950686 -7.922612 0.768115 -69.617967 -0.230016 17.578475 -8.357708 -1.442792 -0.174342 0.854851 0.000000 0.000000 0.000000 0.000000 0.000000 0.000000 0.000000 -11.837079 3.183549 1.872949 46.354385 61.631097 5.879207 -0.812262 49.240001 -0.131604 -14.904531 12.946526 -1.817552 0.191619 -0.699704 -0.000000 0.000000 0.000000 0.000000 0.000000 0.000000 0.000000 
4.314304 18.916391 1.629221 149.514084 -88.229163 -107.264444 -0.860212 -1.146413 0.350883 0.123173 -1.019716 -3.648539 -0.632970 -1.034774 -4.005979 -0.379964 -3.591914 -6.181061 0.988639 0.075034 0.051652 0.000000 0.000000 0.000000 16.941156 -5.213444 -0.343121 -46.622421 -52.883792 -11.105040 0.740464 -70.821955 -0.236904 17.789772 -8.566341 -1.495820 -0.173173 0.869073 0.000000 0.000000 0.000000 0.000000 0.000000 0.000000 0.000000 -12.250831 2.954503 1.629658 43.214542 63.199834 2.382140 -0.945289 49.830370 -0.139115 -15.292783 12.731810 -1.837549 0.196473 -0.711755 -0.000000 0.000000 0.000000 0.000000 0.000000 0.000000 0.000000 
4.165734 19.010393 1.614030 146.247921 -88.205582 -103.293777 -0.847524 -1.201310 0.451344 0.148633 -1.072640 -3.658571 -0.553851 -1.084514 -4.095068 -0.485492 -3.711366 -5.949316 1.058486 0.075842 0.117733 0.000000 0.000000 0.000000 17.404649 -5.150612 -0.600291 -44.407943 -53.682993 -14.432823 0.701698 -71.968892 -0.245519 18.185493 -8.829055 -1.574851 -0.176662 0.882930 0.000000 0.000000 0.000000 0.000000 0.000000 0.000000 0.000000 -12.604791 2.720468 1.379126 39.762237 64.577369 -1.548866 -1.045555 50.455860 -0.145418 -15.645950 12.531997 -1.853853 0.202265 -0.721023 -0.000000 0.000000 0.000000 0.000000 0.000000 0.000000 0.000000 
4.018019 19.093814 1.599072 142.351712 -88.181746 -98.651685 -0.835470 -1.251558 0.530104 0.172178 -1.121461 -3.668463 -0.482468 -1.130951 -4.161430 -0.584029 -3.842138 -5.675994 1.117491 0.074888 0.195348 0.000000 0.000000 0.000000 17.893824 -5.122848 -0.871750 -42.234149 -54.351238 -17.835077 0.653665 -73.059303 -0.255385 18.731717 -9.126547 -1.675483 -0.184194 0.895917 0.000000 0.000000 0.000000 0.000000 0.000000 0.000000 0.000000 -12.905930 2.490119 1.132580 36.002993 65.749688 -5.878729 -1.108908 51.123057 -0.150028 -15.921292 12.351235 -1.862156 0.208184 -0.727312 -0.000000 0.000000 0.000000 0.000000 0.000000 0.000000 0.000000 
3.870389 19.167016 1.584608 138.140929 -88.153222 -93.658447 -0.816973 -1.295608 0.582330 0.196602 -1.164927 -3.677405 -0.414560 -1.173009 -4.198743 -0.684467 -3.981314 -5.368124 1.167743 0.072486 0.282177 0.000000 0.000000 0.000000 18.388401 -5.111724 -1.152007 -40.133723 -54.905386 -21.241216 0.598361 -74.094833 -0.265858 19.381357 -9.438386 -1.791510 -0.194747 0.907541 0.000000 0.000000 0.000000 0.000000 0.000000 0.000000 0.000000 -13.173258 2.264775 0.899161 31.977340 66.716551 -10.543321 -1.136007 51.835936 -0.152744 -16.091183 12.194749 -1.860552 0.213463 -0.730865 -0.000000 0.000000 0.000000 0.000000 0.000000 0.000000 0.000000 
3.721839 19.230052 1.570320 133.880583 -88.111951 -88.574209 -0.799280 -1.332072 0.596639 0.220745 -1.201280 -3.686996 -0.347861 -1.209116 -4.203438 -0.787600 -4.129128 -5.033993 1.210675 0.068933 0.375680 0.000000 0.000000 0.000000 18.878361 -5.104689 -1.435976 -38.139548 -55.364796 -24.578904 0.537763 -75.077937 -0.276180 20.078158 -9.744471 -1.914732 -0.207097 0.917353 0.000000 0.000000 0.000000 0.000000 0.000000 0.000000 0.000000 -13.412683 2.039628 0.688078 27.758194 67.478930 -15.446792 -1.130418 52.601210 -0.153643 -16.147079 12.064712 -1.848732 0.217528 -0.732183 0.000000 0.000000 0.000000 0.000000 0.000000 0.000000 0.000000 
